# xmcd
#
# Track frame offsets:
#	150
#	13470
#	27325
#	41680
#	53707
#	65985
#	79512
#	93085
#	106847
#	120660
#	134635
#	147187
#	159500
#	171575
#	184515
#	196475
#	209775
#	223105
#	237055
#	250935
#	264677
#	277125
#	290647
#	304562
#	317200
#
# Disc length: 4420 seconds
#
# Revision: 2
# Processed by: cddbd v1.5.2PL0 Copyright (c) Steve Scherf et al.
# Submitted via: EasyCDDAExtractor 16.1.0.1
#
DISCID=87114219
DTITLE=T-Bone Walker - Stormy Monday
DYEAR=1949
DGENRE=Blues
TTITLE0=Long Lost Lover Blues
TTITLE1=Go back To The One you Love
TTITLE2=She Had To Let Me Down
TTITLE3=Lonesome Woman Blues
TTITLE4=T-Bone Jumps Again
TTITLE5=T-Bone Shuffle
TTITLE6=Misfortune Blues
TTITLE7=Call I Stormy Monday But Tuesday Is Just As Bad
TTITLE8=Don't Give Me The Runaround
TTITLE9=Plain Old Down Home Blues
TTITLE10=The Time Seems So Long
TTITLE11=No Worry Blues
TTITLE12=Dream Girl Blues
TTITLE13=Long Skirt Baby Blues
TTITLE14=That's Better  For Me
TTITLE15=Home Town Blues
TTITLE16=I'm Still In Love With You
TTITLE17=She's The No-Sleepin'est Woman
TTITLE18=Triflin' Woman Blues
TTITLE19=Hard Pain Blues
TTITLE20=I'm In An Awful Mood
TTITLE21=Wise Man Blues
TTITLE22=Natural Blues
TTITLE23=Inspiration Blues
TTITLE24=Born To Be No Good
EXTD=
EXTT0=
EXTT1=
EXTT2=
EXTT3=
EXTT4=
EXTT5=
EXTT6=
EXTT7=
EXTT8=
EXTT9=
EXTT10=
EXTT11=
EXTT12=
EXTT13=
EXTT14=
EXTT15=
EXTT16=
EXTT17=
EXTT18=
EXTT19=
EXTT20=
EXTT21=
EXTT22=
EXTT23=
EXTT24=
PLAYORDER=
